HIERARCHY
ROOT Hips
{
	OFFSET -0.001795 -0.223333 0.028219
	CHANNELS 6 Xposition Yposition Zposition Zrotation Yrotation Xrotation 
	JOINT LeftUpLeg
	{
		OFFSET 0.069520 -0.091406 -0.006815
		CHANNELS 3 Zrotation Yrotation Xrotation
		JOINT LeftLeg
		{
			OFFSET 0.034277 -0.375199 -0.004496
			CHANNELS 3 Zrotation Yrotation Xrotation
			JOINT LeftFoot
			{
				OFFSET -0.013596 -0.397961 -0.043693
				CHANNELS 3 Zrotation Yrotation Xrotation
				JOINT LeftToe
				{
					OFFSET 0.026358 -0.055791 0.119288
					CHANNELS 3 Zrotation Yrotation Xrotation
					End Site
					{
						OFFSET 0.000000 0.000000 0.000000
					}
				}
			}
		}
	}
	JOINT RightUpLeg
	{
		OFFSET -0.067670 -0.090522 -0.004320
		CHANNELS 3 Zrotation Yrotation Xrotation
		JOINT RightLeg
		{
			OFFSET -0.038290 -0.382569 -0.008850
			CHANNELS 3 Zrotation Yrotation Xrotation
			JOINT RightFoot
			{
				OFFSET 0.015774 -0.398415 -0.042312
				CHANNELS 3 Zrotation Yrotation Xrotation
				JOINT RightToe
				{
					OFFSET -0.025372 -0.048144 0.123348
					CHANNELS 3 Zrotation Yrotation Xrotation
					End Site
					{
						OFFSET 0.000000 0.000000 0.000000
					}
				}
			}
		}
	}
	JOINT Spine
	{
		OFFSET -0.002533 0.108963 -0.026696
		CHANNELS 3 Zrotation Yrotation Xrotation
		JOINT Spine1
		{
			OFFSET 0.005487 0.135180 0.001092
			CHANNELS 3 Zrotation Yrotation Xrotation
			JOINT Spine2
			{
				OFFSET 0.001457 0.052922 0.025425
				CHANNELS 3 Zrotation Yrotation Xrotation
				JOINT Neck
				{
					OFFSET -0.002778 0.213870 -0.042857
					CHANNELS 3 Zrotation Yrotation Xrotation
					JOINT Head
					{
						OFFSET 0.005152 0.064970 0.051349
						CHANNELS 3 Zrotation Yrotation Xrotation
						End Site
						{
							OFFSET 0.000000 0.000000 0.000000
						}
					}
				}
				JOINT LeftShoulder
				{
					OFFSET 0.078845 0.121749 -0.034090
					CHANNELS 3 Zrotation Yrotation Xrotation
					JOINT LeftArm
					{
						OFFSET 0.090977 0.030469 -0.008868
						CHANNELS 3 Zrotation Yrotation Xrotation
						JOINT LeftForeArm
						{
							OFFSET 0.259612 -0.012772 -0.027456
							CHANNELS 3 Zrotation Yrotation Xrotation
							JOINT LeftHand
							{
								OFFSET 0.249234 0.008986 -0.001171
								CHANNELS 3 Zrotation Yrotation Xrotation
								End Site
								{
									OFFSET 0.000000 0.000000 0.000000
								}
							}
						}
					}
				}
				JOINT RightShoulder
				{
					OFFSET -0.081759 0.118833 -0.038615
					CHANNELS 3 Zrotation Yrotation Xrotation
					JOINT RightArm
					{
						OFFSET -0.096012 0.032551 -0.009143
						CHANNELS 3 Zrotation Yrotation Xrotation
						JOINT RightForeArm
						{
							OFFSET -0.253742 -0.013329 -0.021401
							CHANNELS 3 Zrotation Yrotation Xrotation
							JOINT RightHand
							{
								OFFSET -0.255298 0.007772 -0.005559
								CHANNELS 3 Zrotation Yrotation Xrotation
								End Site
								{
									OFFSET 0.000000 0.000000 0.000000
								}
							}
						}
					}
				}
			}
		}
	}
}
MOTION
Frames: 12
Frame Time: 0.050000
0.000000 0.932510 0.000000 -1.940474 2.199929 25.401109 10.133715 -0.862003 -34.098935 -1.790736 0.050563 6.696574 3.861696 11.112627 10.680353 0.000000 0.000000 0.000000 -7.286267 1.675631 -38.888829 1.028534 0.216635 11.938105 -3.328435 -10.881726 9.340156 0.000000 0.000000 0.000000 3.295174 -2.217780 23.983525 0.196250 -0.146266 1.373337 -2.148247 4.459486 3.993928 7.364980 -3.754582 -9.293822 0.000000 0.000000 0.000000 -15.348873 -27.947827 12.332788 -35.375159 -35.425982 5.672238 9.910036 -22.733499 -1.048777 0.000000 0.000000 0.000000 12.264687 25.052586 13.327019 33.651733 41.600826 7.375607 -9.369563 14.441389 -0.424167 0.000000 0.000000 0.000000 
-0.002015 0.937983 0.000514 -1.903996 2.549228 23.919249 8.903203 -1.123096 -31.284968 -0.354751 -0.125499 5.012347 2.605375 8.681686 9.603045 0.000000 0.000000 0.000000 -7.186308 1.592759 -36.439619 2.666663 -0.139682 11.420827 -3.412986 -10.945139 9.203900 0.000000 0.000000 0.000000 3.684047 -2.109225 21.434690 0.214613 -0.070203 -1.125796 -1.585440 5.253857 4.021318 7.954275 -4.658154 -6.582127 0.000000 0.000000 0.000000 -16.509108 -26.673027 11.389052 -37.907452 -31.313676 5.202014 5.941285 -25.128236 -0.383235 0.000000 0.000000 0.000000 15.054344 21.676239 12.216545 37.907452 38.048262 7.547414 -7.236746 16.064044 -0.220083 0.000000 0.000000 0.000000 
-0.003012 0.940065 0.004070 -1.808261 3.005788 20.282340 8.015232 -1.188259 -27.089268 0.221894 -0.239762 5.788958 2.937041 8.618381 7.108163 0.000000 0.000000 0.000000 -6.827540 1.497904 -32.659890 2.315731 -0.064600 13.337925 -3.166429 -9.908651 7.238285 0.000000 0.000000 0.000000 4.115966 -2.022438 19.554992 -0.026869 0.081711 -2.634239 -2.195839 4.517067 4.905328 6.073898 -4.258031 -2.333597 0.000000 0.000000 0.000000 -19.393446 -24.216302 10.251808 -39.756773 -29.436361 4.977255 0.784903 -24.187844 0.702967 0.000000 0.000000 0.000000 20.044207 19.217806 11.593327 39.065176 33.042907 5.893362 -6.258880 18.956256 -0.121867 0.000000 0.000000 0.000000 
-0.002762 0.941004 0.010271 -1.673935 2.108605 18.082698 6.912029 -1.165400 -23.476731 1.177049 -0.334096 4.781762 3.088081 8.359496 5.511796 0.000000 0.000000 0.000000 -6.274344 1.571522 -29.273154 1.514032 0.133238 13.183766 -2.434719 -8.052856 5.920271 0.000000 0.000000 0.000000 3.992928 -1.629803 16.293439 -0.867099 0.459814 -3.776601 -1.564381 3.707999 5.588974 4.120815 -2.410047 -5.004204 0.000000 0.000000 0.000000 -17.300912 -19.189722 7.520469 -45.308006 -26.744113 4.759879 -3.529529 -23.836831 1.571215 0.000000 0.000000 0.000000 18.295654 14.922673 8.176572 45.847438 29.868783 6.427154 -3.022082 19.726317 0.348037 0.000000 0.000000 0.000000 
-0.001373 0.941694 0.019127 -1.230262 3.079709 14.457823 5.637635 -1.109407 -18.252735 1.544111 -0.319608 3.373608 2.952632 7.808949 4.474205 0.000000 0.000000 0.000000 -5.805813 1.362197 -24.271762 -0.015401 0.446424 13.088530 -2.342849 -7.577987 5.418625 0.000000 0.000000 0.000000 3.953055 -1.238210 12.298181 -0.559283 0.358319 -4.140320 -1.648222 2.726626 6.014942 3.729528 -2.156464 -5.054751 0.000000 0.000000 0.000000 -17.837647 -15.856597 5.717854 -48.841452 -23.514109 3.877976 -6.045799 -21.782516 1.887319 0.000000 0.000000 0.000000 17.941127 10.556248 5.414144 50.140173 25.822080 5.589435 -0.062649 19.555662 0.782483 0.000000 0.000000 0.000000 
0.000581 0.943306 0.027765 -0.896852 3.520987 12.316619 4.562085 -0.973607 -14.112485 2.319912 -0.345055 2.051511 2.432059 6.646424 3.995429 0.000000 0.000000 0.000000 -5.583418 1.206509 -20.560892 -1.027417 0.603565 11.521189 -1.681246 -5.771493 4.507738 0.000000 0.000000 0.000000 3.940155 -0.852195 8.086982 -0.432500 0.295237 -3.448074 -2.005575 2.104730 4.649352 3.468556 -1.821755 -6.080044 0.000000 0.000000 0.000000 -15.929294 -11.629891 3.456074 -52.962320 -20.375884 2.972066 -8.616566 -19.928334 2.137565 0.000000 0.000000 0.000000 14.442208 6.830380 3.023170 56.134749 20.725655 4.499122 2.722645 21.268533 1.320663 0.000000 0.000000 0.000000 
0.001869 0.944552 0.033147 -0.785047 4.236803 10.681505 4.345858 -0.809467 -11.140791 2.109143 -0.228122 0.382692 2.315601 6.731303 4.871728 0.000000 0.000000 0.000000 -5.571306 1.014153 -16.821193 -1.365151 0.569495 9.214556 -1.863293 -6.280446 5.075032 0.000000 0.000000 0.000000 3.791587 -0.513691 4.348059 -0.384737 0.307749 -4.143558 -2.213767 2.308664 4.236074 4.295708 -2.042661 -8.258264 0.000000 0.000000 0.000000 -15.795122 -8.825947 1.823883 -54.852911 -17.694346 1.890763 -9.057843 -17.672963 1.919875 0.000000 0.000000 0.000000 14.291258 2.982864 1.152438 58.499716 16.559484 2.753023 4.550440 20.165453 1.555829 0.000000 0.000000 0.000000 
0.002480 0.946008 0.034807 -1.104997 3.762045 9.510342 4.712469 -0.689856 -9.604369 1.741580 -0.175203 0.040512 1.962036 5.856864 4.374602 0.000000 0.000000 0.000000 -5.089566 0.945855 -14.110236 -2.067683 0.610561 7.230879 -1.366606 -5.053326 4.617243 0.000000 0.000000 0.000000 3.804325 -0.339272 2.283708 -0.437644 0.356867 -5.058937 -2.142993 2.655460 3.937683 4.751605 -2.072316 -10.023529 0.000000 0.000000 0.000000 -14.248308 -5.557766 0.323380 -56.940609 -16.426417 1.301561 -10.131292 -15.880621 1.851920 0.000000 0.000000 0.000000 13.134081 0.416806 -0.128559 60.441154 13.821785 1.615451 5.813767 19.116464 1.652150 0.000000 0.000000 0.000000 
0.002738 0.947270 0.035075 -1.437944 2.994189 9.183724 4.880855 -0.633433 -8.878513 2.081355 -0.189474 -0.383569 1.842112 5.779238 4.922735 0.000000 0.000000 0.000000 -4.523207 0.938117 -12.816574 -2.600974 0.607494 5.514648 -0.736041 -3.865054 5.194915 0.000000 0.000000 0.000000 3.822550 -0.192276 0.389117 -0.538705 0.396511 -5.275936 -1.902540 2.411477 3.344786 4.384304 -1.850073 -10.160419 0.000000 0.000000 0.000000 -14.269875 -3.346429 -0.608486 -57.066175 -15.028612 0.654462 -9.797300 -14.666427 1.677504 0.000000 0.000000 0.000000 12.506234 -1.204933 -1.036310 61.473749 11.505649 0.522256 5.893073 18.988297 1.628784 0.000000 0.000000 0.000000 
0.003105 0.946862 0.035943 -1.414194 2.426224 9.222524 4.614648 -0.599624 -8.155717 2.380599 -0.168822 -1.325320 1.892327 6.004352 5.411367 0.000000 0.000000 0.000000 -4.547334 0.913812 -12.187780 -2.860928 0.586684 4.514974 -0.221213 -2.822596 5.407951 0.000000 0.000000 0.000000 3.485336 -0.042354 -1.507222 -0.464854 0.364037 -5.416209 -1.791997 2.274320 2.373979 4.158552 -1.615335 -10.900041 0.000000 0.000000 0.000000 -14.087112 -1.770025 -1.267233 -57.700926 -14.035573 0.252403 -9.775952 -12.711728 1.451595 0.000000 0.000000 0.000000 11.953599 -2.881603 -1.898946 62.588913 9.521474 -0.390306 6.229254 18.370815 1.595048 0.000000 0.000000 0.000000 
0.003354 0.947167 0.037263 -1.618270 1.909070 8.589635 4.520386 -0.501680 -6.445848 2.912506 -0.126481 -2.901128 1.740757 5.964036 6.257783 0.000000 0.000000 0.000000 -4.047234 0.860568 -10.749876 -3.602922 0.593177 3.053178 0.164704 -2.083049 5.626105 0.000000 0.000000 0.000000 3.403526 0.042924 -2.570551 -0.593787 0.406438 -5.203157 -1.618384 1.621895 1.526988 3.848800 -1.650188 -9.573621 0.000000 0.000000 0.000000 -14.347730 -0.107795 -1.929676 -57.284794 -12.429518 -0.463614 -10.142977 -11.988335 1.415925 0.000000 0.000000 0.000000 12.279880 -3.931913 -2.585839 62.292163 7.936535 -1.236665 6.857890 17.716715 1.579968 0.000000 0.000000 0.000000 
0.003678 0.946842 0.038467 -1.900353 1.220727 8.277053 4.492966 -0.444695 -5.503367 3.138204 -0.102024 -3.648835 1.928101 6.357906 6.583575 0.000000 0.000000 0.000000 -4.174741 0.806111 -9.877978 -3.190266 0.433793 1.506636 0.430212 -1.837974 6.334056 0.000000 0.000000 0.000000 3.473091 0.127147 -3.703250 -0.786505 0.466769 -4.670202 -1.496484 1.646705 0.439016 3.466057 -1.361542 -9.926807 0.000000 0.000000 0.000000 -14.302737 1.300550 -2.546520 -57.249193 -11.133622 -1.003939 -10.590553 -11.475955 1.396670 0.000000 0.000000 0.000000 12.451178 -5.213446 -3.283922 62.919050 5.605600 -2.417334 6.680192 17.493103 1.513928 0.000000 0.000000 0.000000 
